<svg width="418" height="418" viewBox="0 0 418 418" fill="none" xmlns="http://www.w3.org/2000/svg">
<path d="M93.0052 0.000370028C41.5782 -0.143317 -0.143317 41.5782 0.000370028 93.0052V324.995C-0.143317 376.422 41.5782 418.143 93.0052 418H324.995C376.422 418.143 418.143 376.422 418 324.995V93.0052C418.143 41.5782 376.422 -0.143317 324.995 0.000370028H93.0052ZM206.61 44.6871C247.299 44.6871 284.096 60.4143 312.141 89.7918C333.446 111.907 345.411 135.367 351.538 166.273C353.641 176.553 353.641 204.572 351.655 216.132C345.124 252.929 324.995 285.873 295.265 308.392C284.658 316.426 258.729 330.377 254.575 330.377C253.008 330.377 252.89 328.809 253.569 322.343C254.862 311.998 256.077 309.895 261.929 307.439C271.243 303.572 287.166 292.195 296.897 282.476C313.892 265.456 326.014 244.177 331.866 220.835C335.536 206.466 335.053 174.554 331.043 159.807C318.385 112.847 280.008 76.4028 233.074 66.5929C219.476 63.8106 194.631 63.8106 180.824 66.5929C133.329 76.4028 93.998 114.702 82.0327 162.876C78.8324 175.991 78.8324 207.916 82.0327 220.978C89.9878 252.89 110.613 282.124 137.614 299.549C142.93 303.089 149.318 306.694 151.982 307.792C157.821 310.3 159.127 312.429 160.199 322.683C160.878 329.018 160.734 330.781 159.258 330.781C158.305 330.781 151.159 327.712 143.596 324.107L142.917 323.571C99.85 302.41 72.2881 266.566 62.23 218.862C59.7873 206.544 59.304 177.232 61.7598 165.933C68.0167 135.589 79.995 111.92 99.9153 90.9675C128.64 60.6756 165.58 44.6871 206.662 44.6871H206.61ZM209 93.6845C216.067 93.7498 222.951 94.3637 228.241 95.5132C276.768 106.329 311.109 154.856 304.434 203.004C301.783 222.454 295.121 238.391 283.286 253.217C277.434 260.701 263.209 273.228 260.701 273.228C260.283 273.228 259.878 268.46 259.878 262.739V252.185L267.089 243.55C294.429 210.829 292.469 165.11 262.661 135.184C251.1 123.48 237.685 116.596 220.404 113.487C209.261 111.384 206.936 111.384 195.232 113.343C177.415 116.204 163.66 123.062 151.408 135.184C121.481 164.849 119.496 210.829 146.862 243.55L154.072 252.185V262.804C154.072 268.656 153.589 273.346 152.975 273.346C152.505 273.346 148.416 270.563 144.053 267.089L143.439 266.88C128.953 255.32 116.165 234.838 110.849 214.695C107.661 202.521 107.661 179.466 110.992 167.344C119.77 134.622 143.923 109.242 177.337 97.3419C184.482 94.8209 197.048 93.4624 208.896 93.6714L209 93.6845ZM206.688 145.725C212.135 145.725 217.504 146.823 221.462 148.86C229.887 153.289 236.915 161.779 239.553 170.766C247.652 198.25 218.536 222.337 192.123 210.019H191.927C179.479 204.232 172.804 193.351 172.66 179.191C172.66 166.403 179.727 155.313 192.045 148.782C195.924 146.744 201.306 145.712 206.74 145.712L206.688 145.725ZM206.544 228.123C223.774 228.058 236.209 234.171 240.833 244.987C244.295 253.086 243.015 278.597 237.019 319.9C233.009 348.742 230.762 356.018 225.197 360.93C217.504 367.722 206.688 369.642 196.342 365.959H196.29C183.842 361.465 181.177 355.404 176.004 319.887C170.1 278.597 168.794 253.073 172.281 244.974C176.827 234.224 189.21 228.189 206.557 228.11L206.544 228.123Z" fill="white"/>
</svg>
