<svg width="418" height="418" viewBox="0 0 418 418" fill="none" xmlns="http://www.w3.org/2000/svg">
<path d="M332.329 186.004C287.647 163.482 234.937 150.283 179.147 150.283C147.398 150.283 116.653 154.548 87.4411 162.562L89.8661 161.99C88.1518 162.548 86.1728 162.868 84.124 162.868C73.5319 162.868 64.9327 154.283 64.9327 143.677C64.9327 135.134 70.5215 127.9 78.2287 125.406L78.368 125.364C152.555 103.413 274.825 107.594 352.175 153.6C358.113 157.196 362.015 163.621 362.015 170.952C362.015 174.562 361.067 177.948 359.423 180.875L359.478 180.777C355.437 185.586 349.43 188.624 342.698 188.624C338.893 188.624 335.325 187.648 332.217 185.948L332.329 186.004ZM330.238 244.526C327.437 249.153 322.42 252.191 316.706 252.191C313.57 252.191 310.657 251.285 308.204 249.71L308.274 249.752C270.1 227.913 224.359 215.049 175.621 215.049C148.792 215.049 122.883 218.951 98.4234 226.212L100.333 225.724C98.9252 226.17 97.3085 226.435 95.636 226.435C86.8696 226.435 79.7617 219.327 79.7617 210.561C79.7617 203.467 84.4028 197.474 90.8138 195.425L90.9253 195.397C116.068 187.941 144.973 183.649 174.868 183.649C230.463 183.649 282.602 198.478 327.521 224.414L326.043 223.634C330.183 226.296 332.886 230.881 332.886 236.094C332.886 239.257 331.897 242.184 330.211 244.581L330.238 244.526ZM305.152 302.002C302.964 305.793 298.936 308.301 294.323 308.301C291.73 308.301 289.319 307.507 287.326 306.155L287.368 306.183C254.017 287.424 214.143 276.372 171.704 276.372C147.37 276.372 123.873 280.009 101.74 286.755L103.441 286.309C102.507 286.546 101.42 286.699 100.319 286.699C93.1831 286.699 87.3992 280.915 87.3992 273.779C87.3992 267.759 91.5246 262.699 97.0994 261.264L97.1831 261.25C119.218 254.7 144.527 250.937 170.715 250.937C218.129 250.937 262.644 263.285 301.249 284.943L299.897 284.246C304.106 286.337 306.95 290.601 306.95 295.521C306.95 297.918 306.281 300.162 305.11 302.058L305.152 302.002ZM209 0C93.5734 0 0 93.5734 0 209C0 324.427 93.5734 418 209 418C324.427 418 418 324.427 418 209C417.652 93.7127 324.287 0.348426 209.042 0H209Z" fill="white"/>
</svg>
